<svg width="53" height="53" viewBox="0 0 53 53" fill="none" xmlns="http://www.w3.org/2000/svg">
<rect x="1" y="4" width="31" height="31" rx="15" fill="#FBD020" fill-opacity="0.5"/>
<path d="M32.6829 48.9584C32.4462 48.9581 32.2113 48.9166 31.9887 48.8359C31.5595 48.6787 31.1954 48.382 30.9548 47.9933C30.7141 47.6046 30.6109 47.1464 30.6617 46.6921L32.2337 32.2167H20.2083C19.8374 32.2173 19.4734 32.1168 19.1553 31.926C18.8372 31.7353 18.577 31.4615 18.4028 31.134C18.2286 30.8066 18.1469 30.4379 18.1664 30.0675C18.186 29.6971 18.306 29.339 18.5137 29.0317L34.6225 4.94004C34.8773 4.56302 35.2507 4.28191 35.6835 4.14135C36.1162 4.00079 36.5836 4.00884 37.0112 4.1642C37.4224 4.31684 37.7735 4.59782 38.0125 4.96554C38.2515 5.33325 38.3657 5.76816 38.3383 6.20587L36.7662 20.7834H48.7917C49.1626 20.7828 49.5266 20.8833 49.8447 21.0741C50.1628 21.2648 50.4229 21.5386 50.5972 21.8661C50.7714 22.1935 50.8531 22.5622 50.8336 22.9326C50.814 23.303 50.6939 23.6611 50.4862 23.9684L34.3775 48.06C34.1902 48.3371 33.9377 48.5639 33.6422 48.7206C33.3468 48.8772 33.0173 48.9589 32.6829 48.9584ZM24.0262 28.1334H34.5C34.7849 28.134 35.0665 28.1943 35.3267 28.3104C35.5869 28.4264 35.8199 28.5956 36.0108 28.8071C36.2035 29.0215 36.3486 29.2742 36.4366 29.5487C36.5245 29.8232 36.5534 30.1132 36.5212 30.3996L35.6025 38.8725L44.9737 24.8667H34.5C34.2119 24.8685 33.9267 24.8092 33.6631 24.6929C33.3995 24.5765 33.1636 24.4057 32.9707 24.1916C32.7779 23.9776 32.6325 23.7251 32.5442 23.4509C32.4559 23.1766 32.4266 22.8868 32.4583 22.6005L33.3771 14.1275L24.0262 28.1334Z" fill="black"/>
</svg>
