<svg width="53" height="53" viewBox="0 0 53 53" fill="none" xmlns="http://www.w3.org/2000/svg">
<rect x="19" y="7" width="31" height="31" rx="3" fill="#2DF4F4" fill-opacity="0.5"/>
<path d="M31.6668 25C30.6353 25.0029 29.6298 25.3248 28.7884 25.9216C27.947 26.5184 27.3107 27.3608 26.9668 28.3334H5.00016C4.55814 28.3334 4.13421 28.5089 3.82165 28.8215C3.50909 29.1341 3.3335 29.558 3.3335 30C3.3335 30.442 3.50909 30.866 3.82165 31.1785C4.13421 31.4911 4.55814 31.6667 5.00016 31.6667H26.9668C27.2726 32.5315 27.8103 33.2955 28.5212 33.8751C29.2321 34.4548 30.0888 34.8277 30.9974 34.9531C31.9061 35.0784 32.8317 34.9515 33.673 34.586C34.5143 34.2205 35.2389 33.6307 35.7674 32.881C36.2959 32.1313 36.6081 31.2507 36.6696 30.3355C36.7312 29.4203 36.5398 28.5058 36.1164 27.6921C35.693 26.8784 35.054 26.1969 34.2692 25.7221C33.4844 25.2472 32.5841 24.9974 31.6668 25ZM31.6668 31.6667C31.3372 31.6667 31.015 31.5689 30.7409 31.3858C30.4668 31.2027 30.2532 30.9424 30.127 30.6378C30.0009 30.3333 29.9679 29.9982 30.0322 29.6749C30.0965 29.3516 30.2552 29.0546 30.4883 28.8215C30.7214 28.5884 31.0184 28.4297 31.3417 28.3654C31.665 28.3011 32.0001 28.3341 32.3046 28.4602C32.6092 28.5864 32.8695 28.8 33.0526 29.0741C33.2358 29.3482 33.3335 29.6704 33.3335 30C33.3335 30.442 33.1579 30.866 32.8453 31.1785C32.5328 31.4911 32.1089 31.6667 31.6668 31.6667Z" fill="black"/>
<path d="M5.00016 21.6668H6.96683C7.31717 22.632 7.95621 23.466 8.79711 24.0554C9.638 24.6447 10.64 24.9609 11.6668 24.9609C12.6937 24.9609 13.6957 24.6447 14.5366 24.0554C15.3774 23.466 16.0165 22.632 16.3668 21.6668H35.0002C35.4422 21.6668 35.8661 21.4912 36.1787 21.1786C36.4912 20.8661 36.6668 20.4421 36.6668 20.0001C36.6668 19.5581 36.4912 19.1342 36.1787 18.8216C35.8661 18.509 35.4422 18.3334 35.0002 18.3334H16.3668C16.0165 17.3682 15.3774 16.5342 14.5366 15.9448C13.6957 15.3555 12.6937 15.0393 11.6668 15.0393C10.64 15.0393 9.638 15.3555 8.79711 15.9448C7.95621 16.5342 7.31717 17.3682 6.96683 18.3334H5.00016C4.55814 18.3334 4.13421 18.509 3.82165 18.8216C3.50909 19.1342 3.3335 19.5581 3.3335 20.0001C3.3335 20.4421 3.50909 20.8661 3.82165 21.1786C4.13421 21.4912 4.55814 21.6668 5.00016 21.6668ZM11.6668 18.3334C11.9965 18.3334 12.3187 18.4312 12.5928 18.6143C12.8669 18.7975 13.0805 19.0578 13.2066 19.3623C13.3328 19.6668 13.3658 20.0019 13.3015 20.3253C13.2372 20.6486 13.0784 20.9455 12.8453 21.1786C12.6123 21.4117 12.3153 21.5704 11.992 21.6347C11.6687 21.6991 11.3336 21.666 11.029 21.5399C10.7245 21.4138 10.4642 21.2001 10.281 20.9261C10.0979 20.652 10.0002 20.3297 10.0002 20.0001C10.0002 19.5581 10.1758 19.1342 10.4883 18.8216C10.8009 18.509 11.2248 18.3334 11.6668 18.3334Z" fill="black"/>
<path d="M35.0002 38.3334H23.0335C22.6832 37.3682 22.0441 36.5342 21.2032 35.9448C20.3623 35.3555 19.3604 35.0393 18.3335 35.0393C17.3066 35.0393 16.3047 35.3555 15.4638 35.9448C14.6229 36.5342 13.9838 37.3682 13.6335 38.3334H5.00016C4.55814 38.3334 4.13421 38.509 3.82165 38.8216C3.50909 39.1342 3.3335 39.5581 3.3335 40.0001C3.3335 40.4421 3.50909 40.8661 3.82165 41.1786C4.13421 41.4912 4.55814 41.6668 5.00016 41.6668H13.6335C13.9838 42.632 14.6229 43.466 15.4638 44.0554C16.3047 44.6447 17.3066 44.9609 18.3335 44.9609C19.3604 44.9609 20.3623 44.6447 21.2032 44.0554C22.0441 43.466 22.6832 42.632 23.0335 41.6668H35.0002C35.4422 41.6668 35.8661 41.4912 36.1787 41.1786C36.4912 40.8661 36.6668 40.4421 36.6668 40.0001C36.6668 39.5581 36.4912 39.1342 36.1787 38.8216C35.8661 38.509 35.4422 38.3334 35.0002 38.3334ZM18.3335 41.6668C18.0039 41.6668 17.6816 41.569 17.4075 41.3859C17.1335 41.2028 16.9198 40.9425 16.7937 40.6379C16.6676 40.3334 16.6345 39.9983 16.6989 39.675C16.7632 39.3516 16.9219 39.0547 17.155 38.8216C17.3881 38.5885 17.685 38.4298 18.0083 38.3655C18.3316 38.3012 18.6668 38.3342 18.9713 38.4603C19.2758 38.5864 19.5361 38.8001 19.7193 39.0742C19.9024 39.3482 20.0002 39.6705 20.0002 40.0001C20.0002 40.4421 19.8246 40.8661 19.512 41.1786C19.1994 41.4912 18.7755 41.6668 18.3335 41.6668Z" fill="black"/>
</svg>
