<svg width="53" height="53" viewBox="0 0 53 53" fill="none" xmlns="http://www.w3.org/2000/svg">
<rect x="19" y="6" width="31" height="31" rx="3" fill="#FBD020" fill-opacity="0.5"/>
<path d="M20.0002 12.3333C29.2052 12.3333 36.6668 19.7949 36.6668 28.9999C36.6668 38.2049 29.2052 45.6666 20.0002 45.6666C10.7952 45.6666 3.3335 38.2049 3.3335 28.9999C3.3335 19.7949 10.7952 12.3333 20.0002 12.3333ZM20.0002 15.6666C16.4639 15.6666 13.0726 17.0713 10.5721 19.5718C8.07159 22.0723 6.66683 25.4637 6.66683 28.9999C6.66683 32.5361 8.07159 35.9275 10.5721 38.428C13.0726 40.9285 16.4639 42.3333 20.0002 42.3333C23.5364 42.3333 26.9278 40.9285 29.4283 38.428C31.9287 35.9275 33.3335 32.5361 33.3335 28.9999C33.3335 25.4637 31.9287 22.0723 29.4283 19.5718C26.9278 17.0713 23.5364 15.6666 20.0002 15.6666ZM28.3335 30.6666C28.3335 32.8767 27.4555 34.9963 25.8927 36.5591C24.3299 38.1219 22.2103 38.9999 20.0002 38.9999C17.79 38.9999 15.6704 38.1219 14.1076 36.5591C12.5448 34.9963 11.6668 32.8767 11.6668 30.6666H28.3335Z" fill="black"/>
</svg>
