<svg width="53" height="53" viewBox="0 0 53 53" fill="none" xmlns="http://www.w3.org/2000/svg">
<rect x="22" y="4" width="31" height="31" rx="3" fill="#2DF4F4" fill-opacity="0.5"/>
<path d="M20.0002 9.83325C16.2094 9.83325 12.5037 10.9574 9.35174 13.0634C6.1998 15.1695 3.74316 18.1629 2.29248 21.6652C0.841801 25.1674 0.462237 29.0212 1.20179 32.7391C1.94134 36.4571 3.76678 39.8723 6.44729 42.5528C9.1278 45.2333 12.543 47.0588 16.2609 47.7983C19.9789 48.5379 23.8327 48.1583 27.3349 46.7076C30.8372 45.2569 33.8306 42.8003 35.9367 39.6483C38.0427 36.4964 39.1668 32.7907 39.1668 28.9999C39.1668 26.4829 38.6711 23.9906 37.7079 21.6652C36.7446 19.3397 35.3328 17.2268 33.5531 15.447C31.7733 13.6672 29.6603 12.2554 27.3349 11.2922C25.0095 10.329 22.5172 9.83325 20.0002 9.83325ZM20.0002 44.3333C16.9675 44.3333 14.003 43.434 11.4814 41.7491C8.95987 40.0643 6.99456 37.6695 5.83402 34.8677C4.67348 32.0659 4.36982 28.9829 4.96146 26.0085C5.5531 23.0342 7.01346 20.302 9.15787 18.1576C11.3023 16.0132 14.0344 14.5529 17.0088 13.9612C19.9832 13.3696 23.0662 13.6732 25.868 14.8338C28.6698 15.9943 31.0645 17.9596 32.7494 20.4812C34.4342 23.0027 35.3335 25.9673 35.3335 28.9999C35.3335 33.0666 33.718 36.9667 30.8425 39.8422C27.9669 42.7178 24.0668 44.3333 20.0002 44.3333Z" fill="black"/>
<path d="M27.6668 27.0832H21.9168V21.3332C21.9168 20.8249 21.7149 20.3374 21.3555 19.9779C20.996 19.6185 20.5085 19.4166 20.0002 19.4166C19.4918 19.4166 19.0043 19.6185 18.6449 19.9779C18.2854 20.3374 18.0835 20.8249 18.0835 21.3332V28.9999C18.0835 29.5082 18.2854 29.9957 18.6449 30.3552C19.0043 30.7146 19.4918 30.9166 20.0002 30.9166H27.6668C28.1752 30.9166 28.6627 30.7146 29.0221 30.3552C29.3816 29.9957 29.5835 29.5082 29.5835 28.9999C29.5835 28.4916 29.3816 28.0041 29.0221 27.6446C28.6627 27.2852 28.1752 27.0832 27.6668 27.0832Z" fill="black"/>
</svg>
