<svg width="53" height="53" viewBox="0 0 53 53" fill="none" xmlns="http://www.w3.org/2000/svg">
<rect x="2" y="4" width="31" height="31" rx="15" fill="#2DF4F4" fill-opacity="0.5"/>
<path d="M49.7913 44.3645L45.075 25.9895C46.8188 23.82 47.7631 21.1166 47.7496 18.3333C47.7496 15.0844 46.459 11.9685 44.1617 9.67119C41.8644 7.37387 38.7485 6.08325 35.4996 6.08325C32.2507 6.08325 29.1349 7.37387 26.8376 9.67119C24.5402 11.9685 23.2496 15.0844 23.2496 18.3333C23.244 21.1381 24.2108 23.8582 25.9855 26.0303L21.208 44.3645C21.1063 44.7564 21.1235 45.1696 21.2573 45.5517C21.391 45.9338 21.6354 46.2675 21.9592 46.5103C22.2831 46.7532 22.6719 46.8944 23.0761 46.9158C23.4804 46.9373 23.8819 46.838 24.2296 46.6308L35.1117 40.2403L46.7084 46.6512C47.0217 46.8403 47.384 46.9326 47.7496 46.9166C48.0666 46.9267 48.3817 46.8628 48.6697 46.73C48.9577 46.5972 49.2108 46.3991 49.409 46.1514C49.6071 45.9037 49.7448 45.6133 49.8112 45.3031C49.8776 44.9929 49.8707 44.6716 49.7913 44.3645ZM35.4996 10.1666C37.1148 10.1666 38.6938 10.6456 40.0368 11.5429C41.3798 12.4403 42.4265 13.7157 43.0446 15.208C43.6628 16.7003 43.8245 18.3423 43.5094 19.9265C43.1943 21.5107 42.4165 22.9658 41.2743 24.108C40.1322 25.2501 38.677 26.0279 37.0929 26.343C35.5087 26.6581 33.8666 26.4964 32.3744 25.8783C30.8821 25.2602 29.6066 24.2134 28.7093 22.8704C27.8119 21.5274 27.333 19.9485 27.333 18.3333C27.333 16.1673 28.1934 14.0901 29.7249 12.5585C31.2565 11.027 33.3337 10.1666 35.4996 10.1666ZM36.1325 36.1162C35.8222 35.937 35.4701 35.8426 35.1117 35.8426C34.7533 35.8426 34.4012 35.937 34.0909 36.1162L26.4346 40.6078L29.3746 28.9703C31.2134 30.0272 33.2971 30.5834 35.418 30.5834C37.5388 30.5834 39.6225 30.0272 41.4613 28.9703L44.585 40.7916L36.1325 36.1162Z" fill="black"/>
</svg>
