<svg width="53" height="53" viewBox="0 0 53 53" fill="none" xmlns="http://www.w3.org/2000/svg">
<rect x="7" y="6" width="31" height="31" rx="3" fill="#2DF4F4" fill-opacity="0.5"/>
<path d="M44.8747 23.2917C44.894 23.1494 44.894 23.0052 44.8747 22.8629C44.8569 22.743 44.8226 22.6262 44.7726 22.5158C44.7187 22.4161 44.6572 22.3205 44.5889 22.23C44.5112 22.1009 44.4149 21.9839 44.303 21.8829L44.058 21.74C43.9402 21.6521 43.8093 21.5832 43.6701 21.5358H43.2618C43.1374 21.4154 42.9921 21.3185 42.833 21.25H32.6247C32.0832 21.25 31.5639 21.4651 31.181 21.848C30.7981 22.2309 30.583 22.7502 30.583 23.2917C30.583 23.8332 30.7981 24.3525 31.181 24.7353C31.5639 25.1182 32.0832 25.3333 32.6247 25.3333H38.4026L30.2359 34.9496L21.4159 29.7025C20.9982 29.454 20.5055 29.3628 20.0264 29.4451C19.5474 29.5274 19.1134 29.778 18.8026 30.1517L8.59427 42.4017C8.42236 42.608 8.29284 42.8462 8.21312 43.1026C8.1334 43.3591 8.10506 43.6287 8.12972 43.8961C8.15437 44.1635 8.23154 44.4234 8.3568 44.661C8.48206 44.8985 8.65295 45.109 8.85969 45.2804C9.22701 45.5848 9.68931 45.7509 10.1664 45.75C10.4663 45.7505 10.7627 45.6849 11.0344 45.5578C11.3061 45.4308 11.5465 45.2455 11.7384 45.015L20.8239 34.1125L29.5418 39.3392C29.9553 39.5844 30.4421 39.6759 30.9164 39.5975C31.3907 39.519 31.8221 39.2757 32.1347 38.9104L40.7914 28.8042V33.5C40.7914 34.0415 41.0065 34.5608 41.3893 34.9437C41.7722 35.3266 42.2915 35.5417 42.833 35.5417C43.3745 35.5417 43.8938 35.3266 44.2767 34.9437C44.6596 34.5608 44.8747 34.0415 44.8747 33.5V23.2917Z" fill="black"/>
</svg>
